<svg xmlns="http://www.w3.org/2000/svg" width="640" height="476.877" viewBox="0 0 640 476.877">
  <g id="Work_chat-rafiki" data-name="Work chat-rafiki" transform="translate(0 -55)">
    <g id="freepik--background-complete--inject-57" transform="translate(0 55)">
      <rect id="Rectangle_2103" data-name="Rectangle 2103" width="640" height="0.32" transform="translate(0 419.072)" fill="#ebebeb"/>
      <rect id="Rectangle_2104" data-name="Rectangle 2104" width="42.394" height="0.32" transform="translate(533.478 439.667)" fill="#ebebeb"/>
      <rect id="Rectangle_2105" data-name="Rectangle 2105" width="11.123" height="0.32" transform="translate(412.838 443.149)" fill="#ebebeb"/>
      <rect id="Rectangle_2106" data-name="Rectangle 2106" width="24.563" height="0.32" transform="translate(507.635 427.789)" fill="#ebebeb"/>
      <rect id="Rectangle_2107" data-name="Rectangle 2107" width="55.283" height="0.32" transform="translate(67.149 429.939)" fill="#ebebeb"/>
      <rect id="Rectangle_2108" data-name="Rectangle 2108" width="8.102" height="0.32" transform="translate(133.837 429.939)" fill="#ebebeb"/>
      <rect id="Rectangle_2109" data-name="Rectangle 2109" width="119.91" height="0.32" transform="translate(168.282 435.341)" fill="#ebebeb"/>
      <path id="Path_8991" data-name="Path 8991" d="M292.661,416.984H45.506a7.309,7.309,0,0,1-7.3-7.309V62.245A7.309,7.309,0,0,1,45.506,55H292.661a7.309,7.309,0,0,1,7.309,7.309V409.675A7.309,7.309,0,0,1,292.661,416.984ZM45.506,55.256a6.989,6.989,0,0,0-6.976,6.989v347.43a6.989,6.989,0,0,0,6.976,6.989H292.661a7,7,0,0,0,6.989-6.989V62.245a7,7,0,0,0-6.989-6.989Z" transform="translate(10.699 -55)" fill="#ebebeb"/>
      <path id="Path_8992" data-name="Path 8992" d="M508.977,416.984H261.809a7.322,7.322,0,0,1-7.309-7.309V62.245A7.322,7.322,0,0,1,261.809,55H508.977a7.309,7.309,0,0,1,7.283,7.245v347.43A7.309,7.309,0,0,1,508.977,416.984ZM261.809,55.256a7,7,0,0,0-6.989,6.989v347.43a7,7,0,0,0,6.989,6.989H508.977a7,7,0,0,0,6.989-6.989V62.245a7,7,0,0,0-6.989-6.989Z" transform="translate(71.26 -55)" fill="#ebebeb"/>
      <rect id="Rectangle_2110" data-name="Rectangle 2110" width="477.709" height="256.077" transform="translate(558.861 280.794) rotate(180)" fill="#fafafa"/>
      <path id="Path_8993" data-name="Path 8993" d="M331.1,139.176c4.211-6.976,15.194-12.621,24.627-12.621a17.421,17.421,0,0,1,5.875.922,40.282,40.282,0,0,1,23.731-8.627c9.907,0,15.13,5.12,13.12,12.032,9.037.448,13.018,6.2,8.858,13.21-4.326,7.322-15.821,13.248-25.677,13.248H324.867c-6.976,0-10.163-4.2-7.091-9.382C320.144,143.951,325.546,140.533,331.1,139.176Z" transform="translate(88.65 -37.122)" fill="#fff"/>
      <path id="Path_8994" data-name="Path 8994" d="M240.4,111.56c2.56-4.262,9.28-7.68,15.027-7.68a10.33,10.33,0,0,1,3.584.563,24.589,24.589,0,0,1,14.5-5.274c6.042,0,9.229,3.149,8,7.347,5.517.269,7.949,3.84,5.414,8.064s-9.664,8.09-15.68,8.09h-34.65c-4.262,0-6.208-2.56-4.339-5.734A13.453,13.453,0,0,1,240.4,111.56Z" transform="translate(64.833 -42.632)" fill="#fff"/>
      <path id="Path_8995" data-name="Path 8995" d="M110.405,131.245c2.56-4.262,9.28-7.68,15.027-7.68a10.343,10.343,0,0,1,3.571.589,24.525,24.525,0,0,1,14.49-5.274c6.042,0,9.229,3.136,8,7.347,5.517.269,7.949,3.84,5.414,8.064s-9.664,8.077-15.68,8.077H106.6c-4.262,0-6.208-2.56-4.326-5.722A13.491,13.491,0,0,1,110.405,131.245Z" transform="translate(28.437 -37.114)" fill="#fff"/>
      <rect id="Rectangle_2111" data-name="Rectangle 2111" width="39.501" height="182.054" transform="translate(170.368 75.277)" fill="#e6e6e6"/>
      <path id="Path_8996" data-name="Path 8996" d="M196.135,287.883H160.5V142.36l35.635,35.494Z" transform="translate(44.94 -30.539)" fill="#e6e6e6"/>
      <rect id="Rectangle_2112" data-name="Rectangle 2112" width="39.501" height="121.92" transform="translate(118.682 135.411)" fill="#e6e6e6"/>
      <rect id="Rectangle_2113" data-name="Rectangle 2113" width="20.134" height="137.126" transform="translate(252.454 120.218)" fill="#e6e6e6"/>
      <rect id="Rectangle_2114" data-name="Rectangle 2114" width="20.134" height="102.093" transform="translate(281.152 155.238)" fill="#e6e6e6"/>
      <rect id="Rectangle_2115" data-name="Rectangle 2115" width="20.134" height="68.557" transform="translate(296.384 188.774)" fill="#e6e6e6"/>
      <rect id="Rectangle_2116" data-name="Rectangle 2116" width="20.134" height="68.557" transform="translate(379.942 188.774)" fill="#e6e6e6"/>
      <rect id="Rectangle_2117" data-name="Rectangle 2117" width="20.134" height="46.925" transform="translate(360.678 210.419)" fill="#e6e6e6"/>
      <rect id="Rectangle_2118" data-name="Rectangle 2118" width="20.134" height="68.557" transform="translate(93.018 188.774)" fill="#e6e6e6"/>
      <rect id="Rectangle_2119" data-name="Rectangle 2119" width="182.272" height="79.962" transform="translate(104.576 177.382)" fill="#e6e6e6"/>
      <rect id="Rectangle_2120" data-name="Rectangle 2120" width="182.272" height="32.051" transform="translate(217.805 225.293)" fill="#e6e6e6"/>
      <rect id="Rectangle_2121" data-name="Rectangle 2121" width="61.184" height="182.054" transform="translate(437.005 280.794) rotate(180)" fill="#f0f0f0"/>
      <path id="Path_8997" data-name="Path 8997" d="M255.83,306.2h55.219V160.69L255.83,196.172Z" transform="translate(71.632 -25.407)" fill="#f0f0f0"/>
      <rect id="Rectangle_2122" data-name="Rectangle 2122" width="61.184" height="121.92" transform="translate(517.082 280.794) rotate(180)" fill="#f0f0f0"/>
      <rect id="Rectangle_2123" data-name="Rectangle 2123" width="31.194" height="137.126" transform="translate(309.85 280.794) rotate(180)" fill="#f0f0f0"/>
      <rect id="Rectangle_2124" data-name="Rectangle 2124" width="31.194" height="91.494" transform="translate(265.37 280.794) rotate(180)" fill="#f0f0f0"/>
      <rect id="Rectangle_2125" data-name="Rectangle 2125" width="31.194" height="68.557" transform="translate(241.805 280.794) rotate(180)" fill="#f0f0f0"/>
      <rect id="Rectangle_2126" data-name="Rectangle 2126" width="31.194" height="68.557" transform="translate(112.346 280.794) rotate(180)" fill="#f0f0f0"/>
      <rect id="Rectangle_2127" data-name="Rectangle 2127" width="31.194" height="46.925" transform="translate(142.182 280.794) rotate(180)" fill="#f0f0f0"/>
      <rect id="Rectangle_2128" data-name="Rectangle 2128" width="31.194" height="68.557" transform="translate(556.851 280.794) rotate(180)" fill="#f0f0f0"/>
      <rect id="Rectangle_2129" data-name="Rectangle 2129" width="282.368" height="79.962" transform="translate(538.931 280.806) rotate(180)" fill="#f0f0f0"/>
      <rect id="Rectangle_2130" data-name="Rectangle 2130" width="282.368" height="32.051" transform="translate(363.52 280.806) rotate(180)" fill="#f0f0f0"/>
      <rect id="Rectangle_2131" data-name="Rectangle 2131" width="2.01" height="256.077" transform="translate(558.861 280.794) rotate(180)" fill="#ebebeb"/>
      <path id="Path_8998" data-name="Path 8998" d="M96.083,376.38a3.009,3.009,0,0,1-1.83-.64,2.957,2.957,0,0,1-.474-4.147c1.677-2.112-2.394-7-6.694-12.186-9.178-11.021-23.04-27.7-4.109-46.81,11.942-12.07,11.686-17.062,11.021-18.65-1.178-2.79-6.63-3.4-8.538-3.4h0a2.957,2.957,0,0,1,0-5.914c1.1,0,11.136.09,14.08,7.014,2.56,6-1.459,14.208-12.25,25.114-15.155,15.3-4.736,27.827,4.454,38.874,5.875,7.078,11.43,13.76,6.771,19.622a2.931,2.931,0,0,1-2.432,1.126Z" transform="translate(20.589 9.296)" fill="#e0e0e0"/>
      <path id="Path_8999" data-name="Path 8999" d="M57.77,335.52h63L106.82,395.526h-35.1Z" transform="translate(16.176 23.546)" fill="#f5f5f5"/>
      <path id="Path_9000" data-name="Path 9000" d="M57.848,338.783h64.307a2.688,2.688,0,0,0,2.688-2.675h0a2.7,2.7,0,0,0-2.688-2.688H57.848a2.7,2.7,0,0,0-2.688,2.688h0a2.688,2.688,0,0,0,2.688,2.675Z" transform="translate(15.445 22.958)" fill="#ebebeb"/>
      <path id="Path_9001" data-name="Path 9001" d="M115.242,296.447,55.709,316.108s-21.568-14.566-5.9-21.12c-7.45-12.71-8.4-37.491,15.578-44.685s22.3,27.84,22.3,27.84,29.555-31.27,28.16,5.875C121.488,282.469,145.411,288.127,115.242,296.447Z" transform="translate(12.349 -0.588)" fill="#e0e0e0"/>
      <path id="Path_9002" data-name="Path 9002" d="M64.9,317.987h72.192s19.046-13.44-.9-12.8c3.955-17.139-7.206-35.917-32.4-36.634s-16.333,27.226-16.333,27.226-42.317-10.086-29.44,10.752C36.982,307.529,47.836,312.943,64.9,317.987Z" transform="translate(13.002 4.791)" fill="#e6e6e6"/>
      <path id="Path_9003" data-name="Path 9003" d="M120.216,318.017l-56.7,2.048a8.755,8.755,0,0,1-7.462-4.006c-2.15-3.046-2.7-6.822,6.4-7.936-2.906-8.96,3.507-24.589,26.957-25.792s11.686,20.48,11.686,20.48,35.469-15.488,23.36,7.539C129.88,310.145,149.5,316.967,120.216,318.017Z" transform="translate(15.323 8.639)" fill="#e0e0e0"/>
      <rect id="Rectangle_2132" data-name="Rectangle 2132" width="297.472" height="5.696" transform="translate(203.827 309.824)" fill="#f0f0f0"/>
      <rect id="Rectangle_2133" data-name="Rectangle 2133" width="32.179" height="5.696" transform="translate(533.478 315.52) rotate(180)" fill="#e6e6e6"/>
      <rect id="Rectangle_2134" data-name="Rectangle 2134" width="320.205" height="2.854" transform="translate(528.512 318.374) rotate(180)" fill="#e0e0e0"/>
      <rect id="Rectangle_2135" data-name="Rectangle 2135" width="102.118" height="3.149" transform="translate(208.294 419.072) rotate(-90)" fill="#e0e0e0"/>
      <rect id="Rectangle_2136" data-name="Rectangle 2136" width="102.118" height="3.149" transform="translate(498.138 419.059) rotate(-90)" fill="#e0e0e0"/>
      <rect id="Rectangle_2137" data-name="Rectangle 2137" width="102.118" height="3.149" transform="translate(525.35 419.072) rotate(-90)" fill="#e0e0e0"/>
      <rect id="Rectangle_2138" data-name="Rectangle 2138" width="102.118" height="3.149" transform="translate(235.494 419.072) rotate(-90)" fill="#e0e0e0"/>
    </g>
    <g id="freepik--Shadow--inject-57" transform="translate(71.821 502.898)">
      <ellipse id="freepik--path--inject-57" cx="248.179" cy="14.49" rx="248.179" ry="14.49" fill="#f5f5f5"/>
    </g>
    <g id="freepik--Table--inject-57" transform="translate(303.347 268.759)">
      <rect id="Rectangle_2139" data-name="Rectangle 2139" width="193.651" height="5.478" transform="translate(8.102 41.704)" fill="#ff4141"/>
      <rect id="Rectangle_2140" data-name="Rectangle 2140" width="44.941" height="5.478" transform="translate(156.813 41.704)" opacity="0.2"/>
      <path id="Path_9004" data-name="Path 9004" d="M366.052,463.509,355.94,258.85h2.534l10.112,204.659Z" transform="translate(-203.684 -211.681)" fill="#ff4141"/>
      <path id="Path_9005" data-name="Path 9005" d="M366.052,463.509,355.94,258.85h2.534l10.112,204.659Z" transform="translate(-203.684 -211.681)" fill="#fff" opacity="0.7"/>
      <path id="Path_9006" data-name="Path 9006" d="M401.165,463.509,391.04,258.85h2.547L403.7,463.509Z" transform="translate(-193.856 -211.681)" fill="#ff4141"/>
      <path id="Path_9007" data-name="Path 9007" d="M401.165,463.509,391.04,258.85h2.547L403.7,463.509Z" transform="translate(-193.856 -211.681)" fill="#ff4141"/>
      <path id="Path_9008" data-name="Path 9008" d="M401.165,463.509,391.04,258.85h2.547L403.7,463.509Z" transform="translate(-193.856 -211.681)" fill="#fff" opacity="0.7"/>
      <path id="Path_9009" data-name="Path 9009" d="M274.634,463.509,284.759,258.85h-2.547L272.1,463.509Z" transform="translate(-227.159 -211.681)" fill="#ff4141"/>
      <path id="Path_9010" data-name="Path 9010" d="M274.634,463.509,284.759,258.85h-2.547L272.1,463.509Z" transform="translate(-227.159 -211.681)" fill="#fff" opacity="0.7"/>
      <path id="Path_9011" data-name="Path 9011" d="M239.537,463.509,249.649,258.85h-2.534L236.99,463.509Z" transform="translate(-236.99 -211.681)" fill="#ff4141"/>
      <path id="Path_9012" data-name="Path 9012" d="M239.537,463.509,249.649,258.85h-2.534L236.99,463.509Z" transform="translate(-236.99 -211.681)" fill="#fff" opacity="0.7"/>
      <path id="Path_9013" data-name="Path 9013" d="M334.481,222h62.208a3.072,3.072,0,0,1,3.1,3.661l-5.235,34.432a4.429,4.429,0,0,1-4.211,3.661H328.132a3.085,3.085,0,0,1-3.11-3.661l5.235-34.432A4.454,4.454,0,0,1,334.481,222Z" transform="translate(-212.356 -221.999)" fill="#ff4141"/>
      <path id="Path_9014" data-name="Path 9014" d="M333.731,222H395.99a3.072,3.072,0,0,1,3.1,3.661l-5.235,34.432a4.429,4.429,0,0,1-4.211,3.661H327.382a3.085,3.085,0,0,1-3.11-3.661l5.235-34.432A4.442,4.442,0,0,1,333.731,222Z" transform="translate(-212.566 -221.999)" fill="#ff4141"/>
      <path id="Path_9015" data-name="Path 9015" d="M333.731,222H395.99a3.072,3.072,0,0,1,3.1,3.661l-5.235,34.432a4.429,4.429,0,0,1-4.211,3.661H327.382a3.085,3.085,0,0,1-3.11-3.661l5.235-34.432A4.442,4.442,0,0,1,333.731,222Z" transform="translate(-212.566 -221.999)" fill="#fff" opacity="0.2"/>
      <path id="Path_9016" data-name="Path 9016" d="M327.14,262.358a2.035,2.035,0,0,1-1.574-.678,2.1,2.1,0,0,1-.448-1.715l5.235-34.368a3.353,3.353,0,0,1,3.136-2.726h62.259a2.035,2.035,0,0,1,1.574.678,2.1,2.1,0,0,1,.435,1.715L392.535,259.7a3.354,3.354,0,0,1-3.136,2.726Z" transform="translate(-212.324 -221.755)" fill="#fff" opacity="0.8"/>
      <path id="Path_9017" data-name="Path 9017" d="M312.837,253.51H395.41a1.152,1.152,0,0,1,1.165,1.37H311.25A1.664,1.664,0,0,1,312.837,253.51Z" transform="translate(-216.197 -213.176)" fill="#ff4141"/>
    </g>
    <g id="freepik--Character--inject-57" transform="translate(276.952 152.279)">
      <path id="Path_9018" data-name="Path 9018" d="M263.25,410.053l-8.154,4.6L245.01,395.115l8.154-4.6Z" transform="translate(-208.349 -58.334)" fill="#ffb573"/>
      <path id="Path_9019" data-name="Path 9019" d="M254.72,409.15l9.5-4.672a.666.666,0,0,1,.909.269l4.147,7.283a1.677,1.677,0,0,1-.73,2.24c-3.341,1.562-5.018,2.15-9.19,4.2-2.56,1.28-8.691,4.416-12.237,6.17s-5.12-1.818-3.84-2.88c6.042-4.736,8.755-8.32,10.24-11.379A2.56,2.56,0,0,1,254.72,409.15Z" transform="translate(-208.958 -54.448)" fill="#263238"/>
      <path id="Path_9020" data-name="Path 9020" d="M253.164,390.52l-8.154,4.6,5.2,10.074,8.41-4.122Z" transform="translate(-208.349 -58.334)" opacity="0.2"/>
      <path id="Path_9021" data-name="Path 9021" d="M253.939,240.93s-26.33,52.928-34.227,78.771c-8.64,28.3,32.41,124.083,32.41,124.083l14.989-6.566S240.23,342.357,244.9,331.836c12.8-29.056,42.7-90.291,42.7-90.291Z" transform="translate(-215.767 -100.219)" fill="#263238"/>
      <path id="Path_9022" data-name="Path 9022" d="M256.268,266.952c-7.181,12.045-10.24,33.754-10.688,47.872,4.058-8.73,8.41-17.818,12.48-26.266h0c2.739-8.051,5.4-15.808,7.885-22.451C265.394,261.512,261.708,257.8,256.268,266.952Z" transform="translate(-208.189 -94.51)" opacity="0.3"/>
      <path id="Path_9023" data-name="Path 9023" d="M262.6,396.743l-16.371,8.576-4.7-5.542,19.379-10.317Z" transform="translate(-209.323 -58.63)" fill="#ff4141"/>
      <path id="Path_9024" data-name="Path 9024" d="M250.912,410.84a11.967,11.967,0,0,0,2.1-1.408.215.215,0,0,0-.1-.384c-.358-.064-3.558-.525-4.39.4a.845.845,0,0,0-.192.781,1.28,1.28,0,0,0,.781.947A2.56,2.56,0,0,0,250.912,410.84Zm1.421-1.434c-1.37,1.05-2.5,1.549-3.085,1.357a.794.794,0,0,1-.486-.64.4.4,0,0,1,.077-.384C249.286,409.252,251.04,409.265,252.332,409.406Z" transform="translate(-207.428 -53.194)" fill="#ff4141"/>
      <path id="Path_9025" data-name="Path 9025" d="M252.8,410.067a.19.19,0,0,0,.077-.282c0-.1-1.037-2.624-2.3-3.034a1.075,1.075,0,0,0-.96.141.819.819,0,0,0-.422.947c.256,1.011,2.381,2.163,3.469,2.253Zm-2.842-2.854a.6.6,0,0,1,.512,0c.755.243,1.5,1.6,1.869,2.406-1.037-.256-2.56-1.178-2.7-1.856a.488.488,0,0,1,.23-.461Z" transform="translate(-207.187 -53.804)" fill="#ff4141"/>
      <path id="Path_9026" data-name="Path 9026" d="M271.191,188.131c-1.638,3.315-3.29,6.234-5.12,9.229s-3.686,5.875-5.734,8.717c-1,1.434-2.061,2.829-3.1,4.237s-2.176,2.778-3.354,4.122a89.028,89.028,0,0,1-7.411,7.872c-.64.64-1.4,1.28-2.086,1.856a27.6,27.6,0,0,1-2.176,1.8l-2.317,1.715c-.256.166-.192.154-.973.666a10.124,10.124,0,0,1-1.946.947,9.715,9.715,0,0,1-8.358-.883,10.073,10.073,0,0,1-1.741-1.382,9.072,9.072,0,0,1-.73-.845,6.036,6.036,0,0,1-.512-.717,24.026,24.026,0,0,1-1.536-3.11,37.451,37.451,0,0,1-1.792-5.683,73.878,73.878,0,0,1-1.549-10.624,91.774,91.774,0,0,1-.2-10.458,4.122,4.122,0,0,1,8.115-.858v.141a143.484,143.484,0,0,0,5.491,18.112,24.685,24.685,0,0,0,1.779,3.635,9.665,9.665,0,0,0,.87,1.28c.09.128,0-.115-.141-.218a3.925,3.925,0,0,0-.307-.371,3.583,3.583,0,0,0-.768-.627,4.007,4.007,0,0,0-1.741-.64,4.25,4.25,0,0,0-1.792.166c-.538.115-1.421.794-.832.294l1.536-1.459c1.011-1,2.035-2.074,3.021-3.162a130.456,130.456,0,0,0,10.97-14.95c1.69-2.662,3.366-5.376,4.979-8.1s3.251-5.594,4.685-8.179l.1-.179a8.256,8.256,0,1,1,14.618,7.68Z" transform="translate(-215.214 -118.383)" fill="#263238"/>
      <path id="Path_9027" data-name="Path 9027" d="M242.72,205.565a61.032,61.032,0,0,0-1.28,11.52c.422-.41.819-.819,1.216-1.28a100.906,100.906,0,0,0,8.768-10.24q1.677-2.2,3.226-4.48c.64-1.626,1.28-3.251,1.766-4.9.179-.55.346-1.075.512-1.626C252.768,192.484,245.216,194.519,242.72,205.565Z" transform="translate(-209.348 -113.405)" opacity="0.3"/>
      <path id="Path_9028" data-name="Path 9028" d="M228.087,189.518,227.05,182.9l-8.23,3.84a35.081,35.081,0,0,0,2.483,6.323,3.354,3.354,0,0,0,5.363.883h0A4.966,4.966,0,0,0,228.087,189.518Z" transform="translate(-215.682 -116.467)" fill="#ffb573"/>
      <path id="Path_9029" data-name="Path 9029" d="M222.974,179.43l-6.144,4.237,2.547,3.994,8.23-3.789Z" transform="translate(-216.239 -117.439)" fill="#ffb573"/>
      <path id="Path_9030" data-name="Path 9030" d="M240.848,420.652l-9.178-2.1,3.686-21.542,9.178,2.1Z" transform="translate(-212.084 -56.516)" fill="#ffb573"/>
      <path id="Path_9031" data-name="Path 9031" d="M235.711,412.934l10.317,2.368a.665.665,0,0,1,.538.781l-1.37,8.282a1.677,1.677,0,0,1-1.984,1.28c-3.571-.9-5.235-1.5-9.779-2.56-2.79-.64-10.547-2.112-14.4-3s-2.867-4.672-1.152-4.646c7.68.141,13.069-.87,16.128-2.317a2.637,2.637,0,0,1,1.7-.192Z" transform="translate(-216.368 -52.075)" fill="#263238"/>
      <path id="Path_9032" data-name="Path 9032" d="M244.145,399.122l-9.19-2.112-1.894,11.11,9.19,2.1Z" transform="translate(-211.695 -56.516)" opacity="0.2"/>
      <path id="Path_9033" data-name="Path 9033" d="M268.988,241.19s-15.168,63.1-19.712,89.741C244.31,360.089,230.46,448.2,230.46,448.2l16.819,3.84s20.992-84.006,28.531-112.282c8.192-30.72,25.165-67.84,25.165-97.984C290.812,241.779,268.988,241.19,268.988,241.19Z" transform="translate(-212.423 -100.146)" fill="#263238"/>
      <path id="Path_9034" data-name="Path 9034" d="M248.616,408.525l-20.506-4.7.461-6.618,22.157,6.131Z" transform="translate(-213.081 -56.46)" fill="#ff4141"/>
      <path id="Path_9035" data-name="Path 9035" d="M229.022,414.161a12.134,12.134,0,0,0,2.56.23.23.23,0,0,0,.2-.128.218.218,0,0,0,0-.243c-.243-.269-2.432-2.637-3.661-2.458a.845.845,0,0,0-.64.5,1.2,1.2,0,0,0,0,1.216A2.56,2.56,0,0,0,229.022,414.161Zm2.01-.218c-1.715,0-2.918-.371-3.251-.9a.819.819,0,0,1,0-.806.423.423,0,0,1,.307-.243C228.766,411.895,230.123,413.021,231.032,413.943Z" transform="translate(-213.302 -52.444)" fill="#ff4141"/>
      <path id="Path_9036" data-name="Path 9036" d="M230.918,414.754h.1a.2.2,0,0,0,.154-.141c0-.1.845-2.7.115-3.84a1.088,1.088,0,0,0-.832-.5.819.819,0,0,0-.922.474c-.448.947.486,3.174,1.28,3.93Zm-.41-4.019a.665.665,0,0,1,.422.294,5.018,5.018,0,0,1,0,3.059A4.378,4.378,0,0,1,230,410.94c0-.115.154-.256.474-.218Z" transform="translate(-212.714 -52.807)" fill="#ff4141"/>
      <path id="Path_9037" data-name="Path 9037" d="M251.688,182.807a9.2,9.2,0,0,1,7.066-6.17,54.524,54.524,0,0,1,7.078-1.075,186.87,186.87,0,0,1,21.414.384c3.725.256,7.526.781,10.56,1.28h.1a6,6,0,0,1,4.915,7.078,295.038,295.038,0,0,0-5.338,38.105c-1.075,18.624-.346,33.28-.781,37.773l-50.381-.922C244.085,213.719,248.424,193.111,251.688,182.807Z" transform="translate(-208.153 -118.562)" fill="#fff"/>
      <path id="Path_9038" data-name="Path 9038" d="M281.578,175.12c-2.56,9.818-18.739,27.213-20.7,54.541.717,14.989.115,25.216,1.958,35.251l30.848-.819c.474-4.749-3.021-20.019-.73-35.494,2.227-15,5.389-35.4,7.181-44.518a6.4,6.4,0,0,0-5.12-7.475H294.9c-3.2-.525-7.206-1.088-11.136-1.344Z" transform="translate(-203.905 -118.646)" fill="#263238"/>
      <path id="Path_9039" data-name="Path 9039" d="M284.359,236.275a.333.333,0,0,1-.256-.128,50.3,50.3,0,0,1-7.45-13.965.32.32,0,0,1,.2-.41.333.333,0,0,1,.41.218,49.228,49.228,0,0,0,7.347,13.773.32.32,0,0,1-.064.448A.384.384,0,0,1,284.359,236.275Z" transform="translate(-199.493 -105.586)" fill="#fff" opacity="0.2"/>
      <path id="Path_9040" data-name="Path 9040" d="M285.985,192.685c-2.2,8.96-1.446,21.363.384,32.678,1.882-12.7,4.429-29.184,6.234-39.4C290.465,184.505,287.726,185.542,285.985,192.685Z" transform="translate(-197.254 -115.769)" opacity="0.3"/>
      <path id="Path_9041" data-name="Path 9041" d="M249.947,183.06a10.6,10.6,0,0,1,7.757-7.053,94.954,94.954,0,0,1,10.15-.858c-2.867,9.293-1.19,36.493.077,57.958-3.84,10.829-3.546,18.778-3.61,31.8l-21.107-1.843C240.91,215.3,246.785,191.739,249.947,183.06Z" transform="translate(-208.998 -118.637)" fill="#263238"/>
      <path id="Path_9042" data-name="Path 9042" d="M262.283,180.649c6.259-1.357,7.424-5.12,7.078-9.421a24.977,24.977,0,0,0-.435-3.162l7.923-6.4,5.811-4.646c-1.715,6.861-3.738,19.4.845,24.09,0,0-3.981,6.285-14.618,5.517C259.89,186.038,262.283,180.649,262.283,180.649Z" transform="translate(-203.593 -123.714)" fill="#ffb573"/>
      <path id="Path_9043" data-name="Path 9043" d="M269.906,178.96,268.14,180.6l5.453,2.061-.653-2.086Z" transform="translate(-201.872 -117.57)" fill="#e0e0e0"/>
      <path id="Path_9044" data-name="Path 9044" d="M271.5,186.766s0-5.363-1.984-6.515a23.513,23.513,0,0,0,10.816-5.9l3.238,1.28S282.384,181.825,271.5,186.766Z" transform="translate(-201.486 -118.861)" fill="#f5f5f5"/>
      <path id="Path_9045" data-name="Path 9045" d="M268.167,178.63l1.242,2.061-5.8.5,1.2-1.83Z" transform="translate(-203.141 -117.663)" fill="#e0e0e0"/>
      <path id="Path_9046" data-name="Path 9046" d="M263.847,185.62a8.333,8.333,0,0,1,4.928-5.837c-3.123-.934-3.213-5.274-3.213-5.274l-3.059.589S259.367,180.884,263.847,185.62Z" transform="translate(-203.749 -118.816)" fill="#f5f5f5"/>
      <path id="Path_9047" data-name="Path 9047" d="M267.41,167.036a24.681,24.681,0,0,1,.435,3.162c2.918-.538,6.861-3.558,7.322-6.528a13.132,13.132,0,0,0,.166-2.97Z" transform="translate(-202.077 -122.683)" opacity="0.2"/>
      <path id="Path_9048" data-name="Path 9048" d="M259.341,141.14a10.7,10.7,0,0,0,.435,10.906l6.272-7.808Z" transform="translate(-204.696 -128.16)" fill="#263238"/>
      <path id="Path_9049" data-name="Path 9049" d="M284.67,150.784c-.448,9.37-.23,14.848-4.877,19.878a12.2,12.2,0,0,1-20.9-5.376c-2.112-8.294-1.037-22.221,8.038-26.381a12.339,12.339,0,0,1,17.741,11.878Z" transform="translate(-204.719 -129.138)" fill="#ffb573"/>
      <path id="Path_9050" data-name="Path 9050" d="M290.4,142.994c-4.045-12.954-44.378-19.648-28.736,2.266l17.152-2.342.64,4.4a60.91,60.91,0,0,0,3.507,10.048l-.717,3.981.742,6.477s7.13-7.91,10.739-11.661C299.13,150.584,293.652,142.674,290.4,142.994Z" transform="translate(-204.69 -130.999)" fill="#263238"/>
      <path id="Path_9051" data-name="Path 9051" d="M259.836,144.181c4.48,3.3,16.192,3.93,16.192,3.93a11.213,11.213,0,0,0-3.571-4.352c4.7,3.046,8.87,6.554,16.717,6.848a22.72,22.72,0,0,0-12.262-13.082C267.465,133.288,251.427,138,259.836,144.181Z" transform="translate(-204.858 -129.626)" fill="#263238"/>
      <path id="Path_9052" data-name="Path 9052" d="M282.333,131.41s-1.741,1.178-2.138,5.274,3.75,9.382,3.75,9.382l1.024-2.624C281.092,138.437,282.333,131.41,282.333,131.41Z" transform="translate(-198.504 -130.884)" fill="#263238"/>
      <path id="Path_9053" data-name="Path 9053" d="M282.43,154.486a8.807,8.807,0,0,1-4.019,4.339c-2.291,1.126-3.507-.947-2.918-3.482.525-2.278,2.368-5.606,4.7-5.683S283.428,152.131,282.43,154.486Z" transform="translate(-199.855 -125.775)" fill="#ffb573"/>
      <path id="Path_9054" data-name="Path 9054" d="M268.042,150.924c0,.755-.384,1.4-.87,1.421s-.909-.576-.922-1.344.384-1.4.883-1.421S268.029,150.118,268.042,150.924Z" transform="translate(-202.402 -125.797)" fill="#263238"/>
      <path id="Path_9055" data-name="Path 9055" d="M261.392,151.28c0,.768-.384,1.4-.883,1.421s-.909-.576-.909-1.28.384-1.4.87-1.421S261.315,150.461,261.392,151.28Z" transform="translate(-204.264 -125.679)" fill="#263238"/>
      <path id="Path_9056" data-name="Path 9056" d="M264.013,151a28.311,28.311,0,0,1-3.533,6.682,4.326,4.326,0,0,0,3.635.512Z" transform="translate(-204.017 -125.399)" fill="#ed893e"/>
      <path id="Path_9057" data-name="Path 9057" d="M266,158.768a6.489,6.489,0,0,0,4.352-2.714.23.23,0,0,0-.064-.307.218.218,0,0,0-.307.077,6.4,6.4,0,0,1-4.877,2.56.243.243,0,0,0-.218.243.23.23,0,0,0,.23.2,6.248,6.248,0,0,0,.883-.064Z" transform="translate(-202.782 -124.079)" fill="#263238"/>
      <path id="Path_9058" data-name="Path 9058" d="M271.511,148.605a.473.473,0,0,0,.2-.09.448.448,0,0,0,.064-.627,4.288,4.288,0,0,0-3.661-1.677.448.448,0,1,0,.1.883,3.443,3.443,0,0,1,2.867,1.28.422.422,0,0,0,.422.23Z" transform="translate(-202.005 -126.742)" fill="#263238"/>
      <path id="Path_9059" data-name="Path 9059" d="M258.1,149.591a.448.448,0,0,0,.333-.256,3.725,3.725,0,0,1,2.56-2.15.435.435,0,0,0,.358-.512.448.448,0,0,0-.512-.371h0a4.634,4.634,0,0,0-3.149,2.662.448.448,0,0,0,.474.627Z" transform="translate(-204.81 -126.716)" fill="#263238"/>
      <path id="Path_9060" data-name="Path 9060" d="M296.1,181.654c.858,1.92,1.587,3.661,2.291,5.491s1.408,3.648,2.074,5.478c1.28,3.661,2.56,7.386,3.584,11.162a114.991,114.991,0,0,1,4.429,23.629,209.918,209.918,0,0,1,0,23.232c-.371,7.68-.973,15.194-1.984,22.784a4.122,4.122,0,0,1-8.179-.077h0c-.832-7.475-1.485-14.976-2.163-22.413q-.5-5.581-1.075-11.1c-.346-3.674-.806-7.322-1.28-10.79a132.635,132.635,0,0,0-5.325-20.48c-1.152-3.418-2.342-6.848-3.61-10.24s-2.624-6.874-3.84-10.086l-.077-.179a8.269,8.269,0,0,1,15.232-6.4Z" transform="translate(-198.432 -118.139)" fill="#263238"/>
      <path id="Path_9061" data-name="Path 9061" d="M295.668,251.963l-5.338,2.56,9.05,3.238s6.131-1.933,3.251-5.312l-1.613-.512C298.394,251.054,297.1,251.143,295.668,251.963Z" transform="translate(-195.659 -97.312)" fill="#ffb573"/>
      <path id="Path_9062" data-name="Path 9062" d="M287.94,259.566l9.562,1.83,2.547-4.378L291,253.78Z" transform="translate(-196.328 -96.621)" fill="#ffb573"/>
    </g>
    <g id="freepik--Chat--inject-57" transform="translate(102.354 93.502)">
      <rect id="Rectangle_2141" data-name="Rectangle 2141" width="42.944" height="1.434" transform="translate(78.471 0.039)" fill="#ff4141"/>
      <path id="Path_9063" data-name="Path 9063" d="M122.95,92.658l-1.05-.986a20.915,20.915,0,0,1,15.36-6.592V86.5a19.456,19.456,0,0,0-14.31,6.157Z" transform="translate(-68.222 -85.08)" fill="#ff4141"/>
      <path id="Path_9064" data-name="Path 9064" d="M137.456,89h82.1a18.573,18.573,0,0,1,18.214,17.139l3.11,49.152,1,15.949L224.931,155.3H141.655a18.56,18.56,0,0,1-18.2-17.126l-2.022-32A15.936,15.936,0,0,1,137.456,89Z" transform="translate(-68.367 -83.982)" fill="#ff4141"/>
      <path id="Path_9065" data-name="Path 9065" d="M138,108.6h77.581a2.662,2.662,0,0,0,2.675-2.854h0a3.11,3.11,0,0,0-3.046-2.854H137.637a2.662,2.662,0,0,0-2.675,2.854h0A3.1,3.1,0,0,0,138,108.6Z" transform="translate(-64.567 -80.093)" fill="#fff"/>
      <path id="Path_9066" data-name="Path 9066" d="M138.671,118.879h77.581a2.662,2.662,0,0,0,2.675-2.854h0a3.1,3.1,0,0,0-3.046-2.854H138.287a2.65,2.65,0,0,0-2.675,2.854h0a3.1,3.1,0,0,0,3.059,2.854Z" transform="translate(-64.385 -77.215)" fill="#fff"/>
      <path id="Path_9067" data-name="Path 9067" d="M159.932,129.162h51.2a2.662,2.662,0,0,0,2.675-2.867h0a3.085,3.085,0,0,0-3.034-2.854H159.587a2.662,2.662,0,0,0-2.675,2.854h0A3.085,3.085,0,0,0,159.932,129.162Z" transform="translate(-58.421 -74.339)" fill="#fff"/>
      <path id="Path_9068" data-name="Path 9068" d="M178.173,153.26h-82.1A15.923,15.923,0,0,0,80.01,170.387l2.3,36.045,1,15.936L98.25,206.431h83.277a15.936,15.936,0,0,0,16.051-17.139l-1.19-18.906a18.56,18.56,0,0,0-18.214-17.126Z" transform="translate(-79.964 -65.989)" fill="#ff4141"/>
      <path id="Path_9069" data-name="Path 9069" d="M178.173,153.26h-82.1A15.923,15.923,0,0,0,80.01,170.387l2.3,36.045,1,15.936L98.25,206.431h83.277a15.936,15.936,0,0,0,16.051-17.139l-1.19-18.906a18.56,18.56,0,0,0-18.214-17.126Z" transform="translate(-79.964 -65.989)" fill="#fff" opacity="0.5"/>
      <path id="Path_9070" data-name="Path 9070" d="M173.259,172.849H95.665a3.1,3.1,0,0,1-3.034-2.854h0a2.662,2.662,0,0,1,2.675-2.854h77.568a3.1,3.1,0,0,1,3.046,2.854h0a2.662,2.662,0,0,1-2.662,2.854Z" transform="translate(-76.419 -62.103)" fill="#fff"/>
      <path id="Path_9071" data-name="Path 9071" d="M147.5,183.149H96.3a3.11,3.11,0,0,1-3.046-2.854h0a2.662,2.662,0,0,1,2.675-2.854h51.2a3.072,3.072,0,0,1,3.034,2.854h0a2.662,2.662,0,0,1-2.662,2.854Z" transform="translate(-76.246 -59.219)" fill="#fff"/>
      <path id="Path_9072" data-name="Path 9072" d="M144.94,207.25h82.086a18.56,18.56,0,0,1,18.214,17.139l2.432,38.4,1.011,15.936-16.947-15.936h-83.29a18.573,18.573,0,0,1-18.214-17.139l-1.344-21.312A15.936,15.936,0,0,1,144.94,207.25Z" transform="translate(-66.277 -50.872)" fill="#ff4141"/>
      <path id="Path_9073" data-name="Path 9073" d="M170.054,228.679a6.5,6.5,0,0,0,6.4,6.029,5.606,5.606,0,0,0,5.658-6.029,6.528,6.528,0,0,0-6.4-6.029,5.594,5.594,0,0,0-5.658,6.029Z" transform="translate(-54.744 -46.56)" fill="#fff"/>
      <path id="Path_9074" data-name="Path 9074" d="M154.344,230.259a6.5,6.5,0,0,0,6.4,6.029,5.594,5.594,0,0,0,5.645-6.029,6.528,6.528,0,0,0-6.4-6.029,5.594,5.594,0,0,0-5.645,6.029Z" transform="translate(-59.143 -46.118)" fill="#fff"/>
      <path id="Path_9075" data-name="Path 9075" d="M186.1,232.629a6.528,6.528,0,0,0,6.4,6.029,5.594,5.594,0,0,0,5.645-6.029,6.5,6.5,0,0,0-6.4-6.029,5.606,5.606,0,0,0-5.645,6.029Z" transform="translate(-50.25 -45.454)" fill="#fff"/>
    </g>
  </g>
</svg>
