<svg xmlns="http://www.w3.org/2000/svg" width="24.5" height="24.5" viewBox="0 0 24.5 24.5">
  <g id="Group_21625" data-name="Group 21625" transform="translate(-2.5 -2.5)">
    <path id="Path_9081" data-name="Path 9081" d="M17.667,3H7A4.012,4.012,0,0,0,3,7V17.667a4.012,4.012,0,0,0,4,4H17.667a4.012,4.012,0,0,0,4-4V7a4.012,4.012,0,0,0-4-4ZM15,13.667H13.667V15A1.333,1.333,0,1,1,11,15V13.667H9.667a1.333,1.333,0,0,1,0-2.667H11V9.667a1.333,1.333,0,0,1,2.667,0V11H15a1.333,1.333,0,1,1,0,2.667Z" transform="translate(0 0)" fill="#fff" stroke="#707070" stroke-width="1"/>
    <path id="Path_9082" data-name="Path 9082" d="M19.333,26h-12a1.333,1.333,0,1,1,0-2.667h12a4,4,0,0,0,4-4v-12a1.333,1.333,0,1,1,2.667,0v12A6.675,6.675,0,0,1,19.333,26Z" transform="translate(1 1)" fill="#f12b20"/>
  </g>
</svg>
