<svg xmlns="http://www.w3.org/2000/svg" width="25" height="23.5" viewBox="0 0 25 23.5">
  <g id="Group_21624" data-name="Group 21624" transform="translate(0.5 -1)">
    <path id="Path_9078" data-name="Path 9078" d="M20.7,6.469A3.8,3.8,0,0,0,20.75,6a3.8,3.8,0,0,0-.047-.469l.9-.682a.5.5,0,0,0,.131-.649l-.809-1.4a.5.5,0,0,0-.627-.211l-1.037.437a3.715,3.715,0,0,0-.819-.487l-.138-1.1a.5.5,0,0,0-.5-.438H16.192a.5.5,0,0,0-.5.438l-.138,1.1a3.731,3.731,0,0,0-.819.487L13.7,2.589a.5.5,0,0,0-.628.211l-.808,1.4a.5.5,0,0,0,.131.649l.9.682A3.616,3.616,0,0,0,13.25,6a3.8,3.8,0,0,0,.047.469l-.9.682a.5.5,0,0,0-.131.649l.809,1.4a.5.5,0,0,0,.627.211l1.037-.438a3.715,3.715,0,0,0,.819.487l.138,1.1a.5.5,0,0,0,.5.439h1.617a.5.5,0,0,0,.5-.438l.138-1.1a3.731,3.731,0,0,0,.819-.487l1.037.437a.5.5,0,0,0,.628-.211l.808-1.4a.5.5,0,0,0-.131-.649ZM17,8a2,2,0,1,1,2-2A2,2,0,0,1,17,8Z" fill="#f12b20"/>
    <path id="Path_9079" data-name="Path 9079" d="M.492,12A.5.5,0,0,0,0,12.5V21.75A.25.25,0,0,0,.25,22H2.622a.5.5,0,0,0,.481-.363l2.213-7.8a1,1,0,0,0-.62-1.213A11.692,11.692,0,0,0,.492,12Z" fill="#fff" stroke="#707070" stroke-width="1"/>
    <path id="Path_9080" data-name="Path 9080" d="M22,17.5c-2,0-6,2.531-8,2.531A9.21,9.21,0,0,1,9.75,18.5,31.152,31.152,0,0,0,14,19c1.556,0,2-.531,2-1.25,0-1.75-2.972-2.022-4.476-2.251A9.2,9.2,0,0,0,6.836,13.82a2.41,2.41,0,0,1-.076.426l-2.009,7.08C7.026,22.361,10.944,24,13,24c3,0,11-4,11-5S23,17.5,22,17.5Z" fill="#fff" stroke="#707070" stroke-width="1"/>
  </g>
</svg>
