<svg xmlns="http://www.w3.org/2000/svg" width="7.632" height="9.397" viewBox="0 0 7.632 9.397">
  <g id="Group_21578" data-name="Group 21578" transform="translate(0.003 0.001)">
    <path id="Path_8976" data-name="Path 8976" d="M222.618,154.7a.22.22,0,0,0-.22.22v4.159a.22.22,0,1,0,.44,0v-4.159A.22.22,0,0,0,222.618,154.7Zm0,0" transform="translate(-217.507 -151.3)" fill="#383838"/>
    <path id="Path_8977" data-name="Path 8977" d="M104.618,154.7a.22.22,0,0,0-.22.22v4.159a.22.22,0,1,0,.44,0v-4.159A.22.22,0,0,0,104.618,154.7Zm0,0" transform="translate(-102.104 -151.3)" fill="#383838"/>
    <path id="Path_8978" data-name="Path 8978" d="M.622,2.8V8.218a1.214,1.214,0,0,0,.323.837,1.084,1.084,0,0,0,.786.34H5.895a1.083,1.083,0,0,0,.786-.34A1.214,1.214,0,0,0,7,8.218V2.8a.841.841,0,0,0-.216-1.653H5.661V.868A.864.864,0,0,0,4.79,0H2.836a.864.864,0,0,0-.871.869v.275H.837A.841.841,0,0,0,.622,2.8ZM5.895,8.955H1.731a.7.7,0,0,1-.669-.737v-5.4h5.5v5.4A.7.7,0,0,1,5.895,8.955ZM2.4.868A.424.424,0,0,1,2.836.439H4.79a.424.424,0,0,1,.431.429v.275H2.4ZM.837,1.583h5.95a.4.4,0,1,1,0,.792H.837a.4.4,0,1,1,0-.792Zm0,0" transform="translate(0 0)" fill="#383838"/>
    <path id="Path_8979" data-name="Path 8979" d="M163.618,154.7a.22.22,0,0,0-.22.22v4.159a.22.22,0,1,0,.44,0v-4.159A.22.22,0,0,0,163.618,154.7Zm0,0" transform="translate(-159.806 -151.3)" fill="#383838"/>
  </g>
</svg>
