<svg xmlns="http://www.w3.org/2000/svg" width="9.561" height="9.513" viewBox="0 0 9.561 9.513">
  <g id="Group_21577" data-name="Group 21577" transform="translate(0 -0.261)">
    <path id="Path_8974" data-name="Path 8974" d="M8.825,44.215a.238.238,0,0,0-.238.238v2.114a.715.715,0,0,1-.714.714H1.191a.715.715,0,0,1-.714-.714V40.362a.715.715,0,0,1,.714-.714H3.3a.238.238,0,1,0,0-.476H1.191A1.192,1.192,0,0,0,0,40.362v6.205a1.192,1.192,0,0,0,1.191,1.191H7.872a1.192,1.192,0,0,0,1.191-1.191V44.454A.238.238,0,0,0,8.825,44.215Zm0,0" transform="translate(0 -37.985)" fill="#383838"/>
    <path id="Path_8975" data-name="Path 8975" d="M114.582.575a1.072,1.072,0,0,0-1.515,0l-4.248,4.248a.238.238,0,0,0-.061.1L108.2,6.945a.238.238,0,0,0,.293.293l2.017-.559a.238.238,0,0,0,.1-.061l4.248-4.248a1.073,1.073,0,0,0,0-1.515Zm-5.245,4.4L112.814,1.5l1.121,1.121L110.458,6.1Zm-.224.449.9.9-1.239.343Zm5.412-3.394-.253.253-1.121-1.121L113.4.911a.6.6,0,0,1,.842,0l.28.279A.6.6,0,0,1,114.525,2.033Zm0,0" transform="translate(-105.614)" fill="#383838"/>
  </g>
</svg>
