<svg width="512" height="512" viewBox="0 0 512 512" fill="none" xmlns="http://www.w3.org/2000/svg">
<g clip-path="url(#clip0_216_4)">
<path d="M256 0C114.509 0 0 114.496 0 256C0 397.489 114.496 512 256 512C397.491 512 512 397.504 512 256C512 114.511 397.504 0 256 0ZM256 476.279C134.538 476.279 35.721 377.463 35.721 256C35.721 134.537 134.538 35.721 256 35.721C377.462 35.721 476.279 134.537 476.279 256C476.279 377.463 377.462 476.279 256 476.279Z" fill="black"/>
<path d="M256.006 213.398C240.842 213.398 230.059 219.802 230.059 229.237V357.623C230.059 365.711 240.842 373.797 256.006 373.797C270.496 373.797 282.289 365.711 282.289 357.623V229.235C282.289 219.801 270.496 213.398 256.006 213.398Z" fill="black"/>
<path d="M256.006 134.207C240.505 134.207 228.375 145.327 228.375 158.132C228.375 170.938 240.506 182.395 256.006 182.395C271.17 182.395 283.302 170.938 283.302 158.132C283.302 145.327 271.169 134.207 256.006 134.207Z" fill="black"/>
</g>
<defs>
<clipPath id="clip0_216_4">
<rect width="512" height="512" fill="white"/>
</clipPath>
</defs>
</svg>
