<svg id="Group_21574" data-name="Group 21574" xmlns="http://www.w3.org/2000/svg" width="11.214" height="11.214" viewBox="0 0 11.214 11.214">
  <g id="Group_21569" data-name="Group 21569">
    <g id="Group_21568" data-name="Group 21568">
      <path id="Path_8970" data-name="Path 8970" d="M5.607,0a5.607,5.607,0,1,0,5.607,5.607A5.6,5.6,0,0,0,5.607,0Zm0,10.338a4.731,4.731,0,1,1,4.731-4.731A4.728,4.728,0,0,1,5.607,10.338Z" fill="#707070"/>
    </g>
  </g>
  <g id="Group_21571" data-name="Group 21571" transform="translate(5.169 4.694)">
    <g id="Group_21570" data-name="Group 21570">
      <path id="Path_8971" data-name="Path 8971" d="M236.438,214.33a.438.438,0,0,0-.438.438v2.821a.438.438,0,0,0,.876,0v-2.821A.438.438,0,0,0,236.438,214.33Z" transform="translate(-236 -214.33)" fill="#707070"/>
    </g>
  </g>
  <g id="Group_21573" data-name="Group 21573" transform="translate(5.016 2.975)">
    <g id="Group_21572" data-name="Group 21572">
      <circle id="Ellipse_1037" data-name="Ellipse 1037" cx="0.591" cy="0.591" r="0.591" fill="#707070"/>
    </g>
  </g>
</svg>
