<svg xmlns="http://www.w3.org/2000/svg" width="22.819" height="19.967" viewBox="0 0 22.819 19.967"><g transform="translate(0 -27.706)"><path d="M71.458,42.723a4.957,4.957,0,0,1-.357-1.854V36.263a7.117,7.117,0,0,0-5.028-6.778,2.132,2.132,0,0,0-4.206,0,7.117,7.117,0,0,0-5.028,6.778v4.606a4.957,4.957,0,0,1-.357,1.854l-1.018,2.546a.713.713,0,0,0,.662.978h5.421a2.772,2.772,0,0,0,4.847,0h5.421a.713.713,0,0,0,.662-.978Zm-14.279,2.1.627-1.568a6.387,6.387,0,0,0,.459-2.383V36.263a5.7,5.7,0,1,1,11.409,0v4.606a6.388,6.388,0,0,0,.459,2.383l.627,1.568Z" transform="translate(-52.56)" fill="#a3a3a3"/><path d="M1.343,117.344a11.4,11.4,0,0,0,0,10.738l1.258-.671a9.98,9.98,0,0,1,0-9.4Z" transform="translate(0 -85.024)" fill="#a3a3a3"/><path d="M394.025,117.344l-1.258.671a9.981,9.981,0,0,1,0,9.4l1.258.671a11.4,11.4,0,0,0,0-10.738Z" transform="translate(-372.549 -85.024)" fill="#a3a3a3"/></g></svg>