<svg xmlns="http://www.w3.org/2000/svg" width="10.494" height="10.494" viewBox="0 0 10.494 10.494">
  <g id="Group_21580" data-name="Group 21580" transform="translate(-14.999 -3.999)">
    <g id="Layer_18" data-name="Layer 18" transform="translate(14.999 3.999)">
      <path id="Path_8980" data-name="Path 8980" d="M10.956,3.536a5.247,5.247,0,1,0,0,7.42,5.247,5.247,0,0,0,0-7.42Zm-.528,6.892A4.5,4.5,0,1,1,11.75,7.242a4.5,4.5,0,0,1-1.323,3.185ZM8.835,6.186,7.775,7.246,8.835,8.307a.374.374,0,0,1-.528.528L7.246,7.775,6.186,8.835a.374.374,0,0,1-.528-.528L6.718,7.246,5.657,6.186a.375.375,0,0,1,.528-.528L7.246,6.718,8.307,5.657a.375.375,0,0,1,.528.528Z" transform="translate(-1.999 -1.999)" fill="#383838"/>
    </g>
  </g>
</svg>
