<svg id="Group_21586" data-name="Group 21586" xmlns="http://www.w3.org/2000/svg" width="9.923" height="9.923" viewBox="0 0 9.923 9.923">
  <g id="Group_21583" data-name="Group 21583">
    <g id="Group_21582" data-name="Group 21582">
      <path id="Path_8981" data-name="Path 8981" d="M4.961,0A4.961,4.961,0,1,0,9.923,4.961,4.959,4.959,0,0,0,4.961,0Zm0,9.261a4.3,4.3,0,1,1,4.3-4.3A4.3,4.3,0,0,1,4.961,9.261Z" fill="#383838"/>
    </g>
  </g>
  <g id="Group_21585" data-name="Group 21585" transform="translate(2.238 3.041)">
    <g id="Group_21584" data-name="Group 21584">
      <path id="Path_8982" data-name="Path 8982" d="M120.837,157.027a.331.331,0,0,0-.468,0l-2.945,2.945-1.372-1.372a.331.331,0,1,0-.468.468l1.606,1.606a.331.331,0,0,0,.468,0l3.178-3.178A.331.331,0,0,0,120.837,157.027Z" transform="translate(-115.487 -156.93)" fill="#383838"/>
    </g>
  </g>
</svg>
