<svg xmlns="http://www.w3.org/2000/svg" width="22.369" height="25.116" viewBox="0 0 22.369 25.116"><g transform="translate(-35.5 -241.5)"><g transform="translate(35.5 242)"><path d="M20.81,15.168a2.109,2.109,0,0,0-1.608-.211,2.083,2.083,0,0,0-.813.445L17,14.6a6.27,6.27,0,0,0,0-5.088l1.385-.8a2.084,2.084,0,0,0,.813.445,2.12,2.12,0,1,0-.511-3.883h0A2.117,2.117,0,0,0,17.675,7.5l-1.39.8a6.326,6.326,0,0,0-4.393-2.527V4.109a2.12,2.12,0,1,0-1.413,0V5.771A6.327,6.327,0,0,0,6.085,8.3l-1.39-.8A2.118,2.118,0,0,0,3.679,5.276h0a2.121,2.121,0,1,0-.511,3.883,2.083,2.083,0,0,0,.813-.445l1.385.8a6.27,6.27,0,0,0,0,5.088l-1.385.8a2.084,2.084,0,0,0-.813-.445,2.125,2.125,0,1,0,1.527,1.664l1.39-.8a6.326,6.326,0,0,0,4.393,2.527v1.662a2.12,2.12,0,1,0,1.413,0V18.345a6.326,6.326,0,0,0,4.393-2.527l1.39.8a2.116,2.116,0,1,0,3.136-1.453Zm-6.8-2.4Z" transform="translate(0)" fill="#fff"/><path d="M11.185,24.616a2.614,2.614,0,0,1-1.207-4.935v-.9a6.871,6.871,0,0,1-4.017-2.31l-.734.424A2.613,2.613,0,1,1,3.3,14.473a2.441,2.441,0,0,1,.72.33l.724-.418a6.754,6.754,0,0,1,0-4.656l-.724-.418a2.441,2.441,0,0,1-.72.33A2.619,2.619,0,1,1,3.8,4.776h.008l.118.067a2.621,2.621,0,0,1,1.3,2.382l.734.424a6.872,6.872,0,0,1,4.017-2.31v-.9a2.62,2.62,0,1,1,2.413,0v.9a6.871,6.871,0,0,1,4.017,2.31l.734-.424a2.621,2.621,0,0,1,1.3-2.382l.116-.067h.009a2.621,2.621,0,1,1,.507,4.866,2.44,2.44,0,0,1-.719-.33l-.724.418a6.754,6.754,0,0,1,0,4.656l.724.418a2.441,2.441,0,0,1,.72-.33,2.651,2.651,0,0,1,.682-.09,2.623,2.623,0,1,1-2.613,2.507l-.734-.424a6.871,6.871,0,0,1-4.017,2.31v.9a2.614,2.614,0,0,1-1.207,4.935ZM6.221,15.162l.265.359a5.861,5.861,0,0,0,4.047,2.327l.444.05v2.461l-.332.118a1.62,1.62,0,1,0,1.077,0l-.332-.118V17.9l.444-.05a5.861,5.861,0,0,0,4.047-2.327l.265-.359,2.082,1.2-.064.347a1.611,1.611,0,1,0,1.164-1.271,1.579,1.579,0,0,0-.617.342l-.269.229-2.079-1.2.18-.41a5.77,5.77,0,0,0,0-4.686l-.18-.41,2.079-1.2.269.229a1.579,1.579,0,0,0,.617.343,1.619,1.619,0,1,0-.389-2.967l-.042.024a1.623,1.623,0,0,0-.733,1.671l.064.347-2.082,1.2-.265-.359a5.861,5.861,0,0,0-4.047-2.327l-.444-.05V3.757l.332-.118a1.62,1.62,0,1,0-1.077,0l.332.118V6.218l-.444.05A5.862,5.862,0,0,0,6.487,8.595l-.265.359L4.14,7.752,4.2,7.4a1.623,1.623,0,0,0-.74-1.676l-.035-.02a1.613,1.613,0,0,0-.8-.216,1.619,1.619,0,1,0,.415,3.183,1.579,1.579,0,0,0,.618-.343L3.924,8.1,6,9.3l-.18.41a5.77,5.77,0,0,0,0,4.686l.18.41-2.079,1.2-.269-.229a1.58,1.58,0,0,0-.617-.343A1.625,1.625,0,1,0,4.2,16.711l-.064-.347Z" transform="translate(0)" fill="#707070"/></g><rect width="6" height="1" transform="translate(44 251)" fill="#fff"/><path d="M0,0H6V1H0Z" transform="translate(44 251)" fill="#f12b20"/><rect width="8" height="1" transform="translate(43 253.5)" fill="#fff"/><path d="M0,0H8V1H0Z" transform="translate(43 253.5)" fill="#f12b20"/><rect width="6" height="1" transform="translate(44 256)" fill="#fff"/><path d="M0,0H6V1H0Z" transform="translate(44 256)" fill="#f12b20"/></g></svg>