<svg xmlns="http://www.w3.org/2000/svg" width="8.154" height="8.3" viewBox="0 0 8.154 8.3">
  <g id="Group_21614" data-name="Group 21614" transform="translate(-23.922 -27)">
    <path id="Path_8988" data-name="Path 8988" d="M45.679,29.339a2.339,2.339,0,1,0-2.339,2.339A2.34,2.34,0,0,0,45.679,29.339Zm-4.069,0a1.729,1.729,0,1,1,1.729,1.729A1.728,1.728,0,0,1,41.61,29.339Z" transform="translate(-15.341)" fill="#fff"/>
    <path id="Path_8989" data-name="Path 8989" d="M24.082,83.767a.287.287,0,0,0,.153.041.3.3,0,0,0,.264-.153,4.025,4.025,0,0,1,7.008,0,.305.305,0,0,0,.529-.305,4.645,4.645,0,0,0-8.076,0A.306.306,0,0,0,24.082,83.767Z" transform="translate(0 -48.507)" fill="#fff"/>
  </g>
</svg>
